# xmcd
#
# Track frame offsets:
#	182
#	19115
#	31237
#	45995
#	60570
#	70445
#	82015
#	94375
#	106610
#	122752
#	142165
#	158215
#	167825
#	181707
#	198147
#
# Disc length: 2830
#
# Revision: 1
# Processed by: cddbd v1.5.1PL0 Copyright (c) Steve Scherf et al.
# Submitted via: dBpowerAMP V4.0
# Normalized: r0:TDELIM( - )
#
DISCID=c30b0c0f
DTITLE=Various Artist - Star Spangled Country (Disk 1)
DYEAR=1997
DGENRE=Country
TTITLE0=Kenny Rogers and Dolly Parton - Islands In The Stream
TTITLE1=Oak Ridge Boys - American Made
TTITLE2=Glen Campbell - Rhinestone Cowboy
TTITLE3=Lee Greenwood - Dixie Road
TTITLE4=Tom T. Hall - Country Is
TTITLE5=Donna Fargo - The Happiest Girl In The Whole U.S.A.
TTITLE6=Charlie Rich - The Most Beautiful Girl
TTITLE7=Merle Haggard - Okie From Muskogee
TTITLE8=Randy Travis - Forever And Ever, Amen
TTITLE9=Restless Heart - I'll Still Be Loving You
TTITLE10=Bonnie Tyler - It's A Heartache
TTITLE11=Linda Ronstadt - When Will I Be Loved
TTITLE12=Tanya Tucker - Lizzie And The Rainman
TTITLE13=Janie Fricke - It Ain't Easy Bein' Easy
TTITLE14=Eddie Rabbitt - I Love A Rainy Night
EXTD=Disk 1 of 3 in album
EXTT0=
EXTT1=
EXTT2=
EXTT3=
EXTT4=
EXTT5=
EXTT6=
EXTT7=
EXTT8=
EXTT9=
EXTT10=
EXTT11=
EXTT12=
EXTT13=
EXTT14=
PLAYORDER=
